<?xml version="1.0" encoding="utf-8"?>
<!-- Generator: Adobe Illustrator 21.1.0, SVG Export Plug-In . SVG Version: 6.00 Build 0)  -->
<svg version="1.1" id="Layer_1" xmlns="http://www.w3.org/2000/svg" xmlns:xlink="http://www.w3.org/1999/xlink" x="0px" y="0px"
	 viewBox="0 0 2048 2048" style="enable-background:new 0 0 2048 2048;" xml:space="preserve">
<style type="text/css">
	.st0{fill:#C9C9C9;}
</style>
<path id="Corps_1_" class="st0" d="M336.5,2022.5h1374c0,0-140-654-684-654S336.5,2022.5,336.5,2022.5z"/>
<path class="st0" d="M1026.5,92.5c-277.8,0-503,225.2-503,503c0,277.8,225.2,503,503,503s503-225.2,503-503
	C1529.5,317.7,1304.3,92.5,1026.5,92.5z M738.7,489.8h-41.3c6.1-70.5,65.1-125.9,137-125.9c71.9,0,130.9,55.3,137,125.9h-40.1
	c-6.3-47.7-47-84.6-96.3-84.6C785.6,405.2,744.9,442.1,738.7,489.8z M927.9,771.6c-71.9,0-130.9-55.3-137-125.9H831
	c6.3,47.7,47,84.6,96.3,84.6c49.3,0,90-36.9,96.3-84.6h41.3C1058.8,716.3,999.8,771.6,927.9,771.6z M1298.8,489.8
	c-6.3-47.7-47-84.6-96.3-84.6s-90,36.9-96.3,84.6h-41.3c6.1-70.5,65.1-125.9,137-125.9c71.9,0,130.9,55.3,137,125.9H1298.8z"/>
</svg>
