<?xml version="1.0" encoding="utf-8"?>
<!-- Generator: Adobe Illustrator 19.0.0, SVG Export Plug-In . SVG Version: 6.00 Build 0)  -->
<svg version="1.1" xmlns="http://www.w3.org/2000/svg" xmlns:xlink="http://www.w3.org/1999/xlink" x="0px" y="0px"
	 viewBox="726 -604.1 2048 2048" style="enable-background:new 726 -604.1 2048 2048;" xml:space="preserve">
<style type="text/css">
	.st0{fill:#5ABA49;}
	.st1{fill:#CBE3B5;}
	.st2{fill:#231F20;}
	.st3{fill:none;stroke:#F89837;stroke-width:177;stroke-miterlimit:10;}
	.st4{fill:#FEE0C1;}
	.st5{fill:#F89837;}
</style>
<g id="Calque_1">
	<g>
		<g>
			<path class="st0" d="M1752.6,930c-101.8,0-200.6-19.9-293.6-59.3c-89.8-38-170.5-92.4-239.8-161.6
				c-69.3-69.3-123.6-149.9-161.6-239.8c-39.4-93-59.3-191.8-59.3-293.6c0-101.8,20-200.6,59.3-293.6
				c38-89.8,92.4-170.5,161.6-239.7c69.3-69.3,149.9-123.6,239.8-161.6c93-39.4,191.8-59.3,293.6-59.3c101.8,0,200.6,20,293.6,59.3
				c89.8,38,170.5,92.4,239.8,161.6c69.3,69.3,123.6,149.9,161.6,239.7c39.4,93,59.3,191.8,59.3,293.6c0,101.8-20,200.6-59.3,293.6
				c-38,89.8-92.4,170.5-161.6,239.8c-69.3,69.3-149.9,123.6-239.8,161.6C1953.2,910,1854.4,930,1752.6,930z M1752.6-445.7
				c-342.6,0-621.4,278.8-621.4,621.4c0,342.6,278.7,621.4,621.4,621.4c342.6,0,621.4-278.8,621.4-621.4
				C2374-166.9,2095.2-445.7,1752.6-445.7z"/>
			<circle class="st1" cx="1752.6" cy="175.7" r="687.8"/>
		</g>
		<path class="st0" d="M1266.9,14h60.8c9.2-70.3,69.2-124.6,141.8-124.6c72.6,0,132.6,54.3,141.8,124.6h59
			c-8.9-103.9-95.8-185.4-201.7-185.4C1362.8-171.3,1275.9-89.8,1266.9,14L1266.9,14z"/>
		<path class="st0" d="M1818.2,14h60.8c9.2-70.3,69.2-124.6,141.8-124.6c72.6,0,132.6,54.3,141.8,124.6h59
			c-8.9-103.9-95.8-185.4-201.7-185.4C1914.1-171.3,1827.2-89.8,1818.2,14L1818.2,14z"/>
		<path class="st0" d="M1608,434.3c105.6,0,192.3-81.3,201.2-184.8h-60.7c-9.2,70.1-69,124.2-141.4,124.2
			c-72.5,0-132.2-54.2-141.4-124.2h-58.9C1415.7,353,1502.4,434.3,1608,434.3z"/>
	</g>
	<g>
		<path class="st2" d="M1187.1,1005h22v112.4c0,44.6-22.3,58.3-51.6,58.3c-8.1,0-18-1.7-23.5-4l3.3-17.7c4.6,1.7,11.1,3.2,18.5,3.2
			c19.7,0,31.4-8.7,31.4-41.6V1005z"/>
		<path class="st2" d="M1257.4,1116.6c0.5,29.7,19.7,41.9,42,41.9c15.9,0,25.6-2.7,33.9-6.2l3.8,15.7c-7.8,3.5-21.3,7.5-40.7,7.5
			c-37.7,0-60.2-24.4-60.2-60.8s21.8-65.1,57.4-65.1c40,0,50.6,34.7,50.6,56.8c0,4.5-0.5,8-0.8,10.2H1257.4z M1322.7,1100.9
			c0.3-14-5.8-35.7-30.9-35.7c-22.5,0-32.4,20.4-34.2,35.7H1322.7z"/>
		<path class="st2" d="M1425.4,1091.7c0-15.5-0.5-27.9-1-39.4h20l1,20.7h0.5c9.1-14.7,23.5-23.4,43.5-23.4
			c29.6,0,51.9,24.7,51.9,61.3c0,43.4-26.8,64.8-55.7,64.8c-16.2,0-30.4-7-37.7-18.9h-0.5v65.6h-22V1091.7z M1447.4,1123.9
			c0,3.2,0.5,6.2,1,9c4,15.2,17.5,25.7,33.4,25.7c23.5,0,37.2-18.9,37.2-46.6c0-24.2-12.9-44.9-36.4-44.9
			c-15.2,0-29.3,10.7-33.6,27.2c-0.8,2.7-1.5,6-1.5,9V1123.9z"/>
		<path class="st2" d="M1637.1,1173l-1.8-15.2h-0.8c-6.8,9.5-20,17.9-37.4,17.9c-24.8,0-37.4-17.2-37.4-34.7
			c0-29.2,26.3-45.1,73.6-44.9v-2.5c0-10-2.8-27.9-27.8-27.9c-11.4,0-23.3,3.5-31.9,9l-5.1-14.5c10.1-6.5,24.8-10.7,40.2-10.7
			c37.4,0,46.5,25.2,46.5,49.4v45.1c0,10.5,0.5,20.7,2,28.9H1637.1z M1633.8,1111.4c-24.3-0.5-51.9,3.7-51.9,27.2
			c0,14.2,9.6,20.9,21,20.9c15.9,0,26.1-10,29.6-20.2c0.8-2.2,1.3-4.7,1.3-7V1111.4z"/>
		<path class="st2" d="M1691.3,1090c0-14.2-0.3-26.4-1-37.6h19.5l0.8,23.7h1c5.6-16.2,19-26.4,33.9-26.4c2.5,0,4.3,0.2,6.3,0.7v20.7
			c-2.3-0.5-4.6-0.7-7.6-0.7c-15.7,0-26.8,11.7-29.9,28.2c-0.5,3-1,6.5-1,10.2v64.3h-22V1090z"/>
		<path class="st2" d="M1806.9,1017.7v34.7h31.9v16.7h-31.9v65.1c0,15,4.3,23.4,16.7,23.4c5.8,0,10.1-0.7,12.9-1.5l1,16.5
			c-4.3,1.7-11.1,3-19.7,3c-10.4,0-18.7-3.2-24-9.2c-6.3-6.5-8.6-17.2-8.6-31.4V1069h-19v-16.7h19v-28.9L1806.9,1017.7z"/>
		<path class="st2" d="M1888.6,1018.4c0.3,7.5-5.3,13.5-14.2,13.5c-7.8,0-13.4-6-13.4-13.5c0-7.7,5.8-13.7,13.9-13.7
			C1883.3,1004.7,1888.6,1010.7,1888.6,1018.4z M1863.8,1173v-120.7h22.3V1173H1863.8z"/>
		<path class="st2" d="M2010.2,1168.5c-5.8,3-18.7,7-35.2,7c-36.9,0-61-24.7-61-61.6c0-37.1,25.8-64.1,65.8-64.1
			c13.2,0,24.8,3.2,30.9,6.2l-5.1,17c-5.3-3-13.7-5.7-25.8-5.7c-28.1,0-43.3,20.4-43.3,45.6c0,27.9,18.2,45.1,42.5,45.1
			c12.6,0,21-3.2,27.3-6L2010.2,1168.5z"/>
		<path class="st2" d="M2061.1,1018.4c0.3,7.5-5.3,13.5-14.2,13.5c-7.8,0-13.4-6-13.4-13.5c0-7.7,5.8-13.7,13.9-13.7
			C2055.8,1004.7,2061.1,1010.7,2061.1,1018.4z M2036.3,1173v-120.7h22.3V1173H2036.3z"/>
		<path class="st2" d="M2095.5,1091.7c0-15.5-0.5-27.9-1-39.4h20l1,20.7h0.5c9.1-14.7,23.5-23.4,43.5-23.4
			c29.6,0,51.9,24.7,51.9,61.3c0,43.4-26.8,64.8-55.7,64.8c-16.2,0-30.4-7-37.7-18.9h-0.5v65.6h-22V1091.7z M2117.5,1123.9
			c0,3.2,0.5,6.2,1,9c4,15.2,17.5,25.7,33.4,25.7c23.5,0,37.2-18.9,37.2-46.6c0-24.2-12.9-44.9-36.4-44.9
			c-15.2,0-29.3,10.7-33.6,27.2c-0.8,2.7-1.5,6-1.5,9V1123.9z"/>
		<path class="st2" d="M2251.8,1116.6c0.5,29.7,19.7,41.9,42,41.9c15.9,0,25.5-2.7,33.9-6.2l3.8,15.7c-7.8,3.5-21.3,7.5-40.7,7.5
			c-37.7,0-60.2-24.4-60.2-60.8s21.8-65.1,57.4-65.1c40,0,50.6,34.7,50.6,56.8c0,4.5-0.5,8-0.8,10.2H2251.8z M2317.1,1100.9
			c0.3-14-5.8-35.7-30.9-35.7c-22.5,0-32.4,20.4-34.2,35.7H2317.1z"/>
		<path class="st2" d="M1233.6,1290.9c0-15.5-0.5-27.9-1-39.4h20l1,20.7h0.5c9.1-14.7,23.5-23.4,43.5-23.4
			c29.6,0,51.9,24.7,51.9,61.3c0,43.4-26.8,64.8-55.7,64.8c-16.2,0-30.4-7-37.7-18.9h-0.5v65.6h-22V1290.9z M1255.6,1323
			c0,3.2,0.5,6.2,1,9c4,15.2,17.5,25.7,33.4,25.7c23.5,0,37.2-18.9,37.2-46.6c0-24.2-12.9-44.9-36.4-44.9
			c-15.2,0-29.3,10.7-33.6,27.2c-0.8,2.7-1.5,6-1.5,9V1323z"/>
		<path class="st2" d="M1390,1315.8c0.5,29.7,19.7,41.9,42,41.9c15.9,0,25.6-2.7,33.9-6.2l3.8,15.7c-7.8,3.5-21.3,7.5-40.7,7.5
			c-37.7,0-60.2-24.4-60.2-60.8s21.8-65.1,57.4-65.1c40,0,50.6,34.7,50.6,56.8c0,4.5-0.5,8-0.8,10.2H1390z M1455.2,1300.1
			c0.3-14-5.8-35.7-30.9-35.7c-22.5,0-32.4,20.4-34.2,35.7H1455.2z"/>
		<path class="st2" d="M1606.8,1339.2c0,12.5,0.3,23.4,1,32.9H1588l-1.3-19.7h-0.5c-5.8,9.7-18.7,22.4-40.5,22.4
			c-19.2,0-42.2-10.5-42.2-52.9v-70.6h22.3v66.8c0,22.9,7.1,38.4,27.3,38.4c14.9,0,25.3-10.2,29.3-19.9c1.3-3.2,2-7.2,2-11.2v-74
			h22.3V1339.2z"/>
		<path class="st2" d="M1670.5,1216.8v34.7h31.9v16.7h-31.9v65.1c0,15,4.3,23.4,16.7,23.4c5.8,0,10.1-0.7,12.9-1.5l1,16.5
			c-4.3,1.7-11.1,3-19.7,3c-10.4,0-18.7-3.2-24-9.2c-6.3-6.5-8.6-17.2-8.6-31.4v-65.8h-19v-16.7h19v-28.9L1670.5,1216.8z"/>
		<path class="st2" d="M1777.8,1296.6v16.2h-62.5v-16.2H1777.8z"/>
		<path class="st2" d="M1820.8,1315.8c0.5,29.7,19.7,41.9,42,41.9c15.9,0,25.6-2.7,33.9-6.2l3.8,15.7c-7.8,3.5-21.3,7.5-40.7,7.5
			c-37.7,0-60.2-24.4-60.2-60.8s21.8-65.1,57.4-65.1c40,0,50.6,34.7,50.6,56.8c0,4.5-0.5,8-0.8,10.2H1820.8z M1886,1300.1
			c0.3-14-5.8-35.7-30.9-35.7c-22.5,0-32.4,20.4-34.2,35.7H1886z M1863.8,1199.4l24.3,35.6h-16.9l-14.7-23.7h-0.5l-14.7,23.7h-16.7
			l24-35.6H1863.8z"/>
		<path class="st2" d="M1961.9,1216.8v34.7h31.9v16.7h-31.9v65.1c0,15,4.3,23.4,16.7,23.4c5.8,0,10.1-0.7,12.9-1.5l1,16.5
			c-4.3,1.7-11.1,3-19.7,3c-10.4,0-18.7-3.2-24-9.2c-6.3-6.5-8.6-17.2-8.6-31.4v-65.8h-19v-16.7h19v-28.9L1961.9,1216.8z"/>
		<path class="st2" d="M2018.8,1289.1c0-14.2-0.3-26.4-1-37.6h19.5l0.8,23.7h1c5.6-16.2,19-26.4,33.9-26.4c2.5,0,4.3,0.2,6.3,0.7
			v20.7c-2.3-0.5-4.6-0.7-7.6-0.7c-15.7,0-26.8,11.7-29.9,28.2c-0.5,3-1,6.5-1,10.2v64.3h-22V1289.1z"/>
		<path class="st2" d="M2111.4,1315.8c0.5,29.7,19.7,41.9,42,41.9c15.9,0,25.5-2.7,33.9-6.2l3.8,15.7c-7.8,3.5-21.3,7.5-40.7,7.5
			c-37.7,0-60.2-24.4-60.2-60.8s21.8-65.1,57.4-65.1c40,0,50.6,34.7,50.6,56.8c0,4.5-0.5,8-0.8,10.2H2111.4z M2176.7,1300.1
			c0.3-14-5.8-35.7-30.9-35.7c-22.5,0-32.4,20.4-34.2,35.7H2176.7z"/>
		<path class="st2" d="M2275.1,1359.4c0-9,6.3-15.5,14.9-15.5c9.1,0,14.9,6.5,14.9,15.5c0,8.7-5.8,15.5-14.9,15.5
			C2281.2,1374.9,2275.1,1368.1,2275.1,1359.4z M2281.4,1323.8l-3.5-119.7h24.3l-3.5,119.7H2281.4z"/>
	</g>
</g>
<g id="Calque_2">
	<g>
		<g>
			<circle class="st3" cx="1747.9" cy="184.9" r="673"/>
			<circle class="st4" cx="1747.9" cy="184.9" r="673"/>
		</g>
		<path class="st5" d="M1272.7,26.7h59.5c9-68.8,67.7-121.9,138.8-121.9c71.1,0,129.7,53.1,138.8,121.9h57.8
			c-8.7-101.6-93.8-181.4-197.4-181.4S1281.4-74.9,1272.7,26.7L1272.7,26.7z"/>
		<path class="st5" d="M1812.1,26.7h59.5c9-68.8,67.7-121.9,138.8-121.9c71.1,0,129.7,53.1,138.8,121.9h57.8
			c-8.7-101.6-93.8-181.4-197.4-181.4C1905.9-154.7,1820.8-74.9,1812.1,26.7L1812.1,26.7z"/>
		<path class="st5" d="M1506.8,182.3H1692v63.6h-185.2V182.3z"/>
	</g>
</g>
</svg>
