<?xml version="1.0" encoding="utf-8"?>
<!-- Generator: Adobe Illustrator 16.0.0, SVG Export Plug-In . SVG Version: 6.00 Build 0)  -->
<!DOCTYPE svg PUBLIC "-//W3C//DTD SVG 1.1//EN" "http://www.w3.org/Graphics/SVG/1.1/DTD/svg11.dtd">
<svg version="1.1" id="Calque_1" xmlns="http://www.w3.org/2000/svg" xmlns:xlink="http://www.w3.org/1999/xlink" x="0px" y="0px"
	 width="2048px" height="2048px" viewBox="0 0 2048 2048" enable-background="new 0 0 2048 2048" xml:space="preserve">
<g>
	<path fill="#010101" d="M456.637,1945.142c9.75,6,24,11,39,11c22.25,0,35.25-11.75,35.25-28.75c0-15.75-9-24.75-31.75-33.5
		c-27.5-9.75-44.5-24-44.5-47.75c0-26.25,21.75-45.75,54.5-45.75c17.25,0,29.75,4,37.25,8.25l-6,17.75c-5.5-3-16.75-8-32-8
		c-23,0-31.75,13.75-31.75,25.25c0,15.75,10.25,23.5,33.5,32.5c28.5,11,43,24.75,43,49.5c0,26-19.25,48.5-59,48.5
		c-16.25,0-34-4.75-43-10.75L456.637,1945.142z"/>
	<path fill="#010101" d="M683.386,1938.642c0,12.5,0.25,23.5,1,33h-19.5l-1.25-19.75h-0.5c-5.75,9.75-18.5,22.5-40,22.5
		c-19,0-41.75-10.5-41.75-53v-70.75h22v67c0,23,7,38.5,27,38.5c14.75,0,25-10.25,29-20c1.25-3.25,2-7.25,2-11.25v-74.25h22V1938.642
		z"/>
	<path fill="#010101" d="M719.885,1890.142c0-15.5-0.5-28-1-39.5h19.75l1,20.75h0.5c9-14.75,23.25-23.5,43-23.5
		c29.25,0,51.25,24.75,51.25,61.5c0,43.5-26.5,65-55,65c-16,0-30-7-37.25-19h-0.5v65.75h-21.75V1890.142z M741.635,1922.392
		c0,3.25,0.5,6.25,1,9c4,15.25,17.25,25.75,33,25.75c23.25,0,36.75-19,36.75-46.75c0-24.25-12.75-45-36-45
		c-15,0-29,10.75-33.25,27.25c-0.75,2.75-1.5,6-1.5,9V1922.392z"/>
	<path fill="#010101" d="M862.131,1890.142c0-15.5-0.5-28-1-39.5h19.75l1,20.75h0.5c9-14.75,23.25-23.5,43-23.5
		c29.25,0,51.25,24.75,51.25,61.5c0,43.5-26.5,65-55,65c-16,0-30-7-37.25-19h-0.5v65.75h-21.75V1890.142z M883.881,1922.392
		c0,3.25,0.5,6.25,1,9c4,15.25,17.25,25.75,33,25.75c23.25,0,36.75-19,36.75-46.75c0-24.25-12.75-45-36-45
		c-15,0-29,10.75-33.25,27.25c-0.75,2.75-1.5,6-1.5,9V1922.392z"/>
	<path fill="#010101" d="M1004.377,1888.392c0-14.25-0.25-26.5-1-37.75h19.25l0.75,23.75h1c5.5-16.25,18.75-26.5,33.5-26.5
		c2.5,0,4.25,0.25,6.25,0.75v20.75c-2.25-0.5-4.5-0.75-7.5-0.75c-15.5,0-26.5,11.75-29.5,28.25c-0.5,3-1,6.5-1,10.25v64.5h-21.75
		V1888.392z"/>
	<path fill="#010101" d="M1111.625,1816.642c0.25,7.5-5.25,13.5-14,13.5c-7.75,0-13.25-6-13.25-13.5c0-7.75,5.75-13.75,13.75-13.75
		C1106.375,1802.892,1111.625,1808.892,1111.625,1816.642z M1087.125,1971.642v-121h22v121H1087.125z"/>
	<path fill="#010101" d="M1145.623,1883.392c0-12.5-0.25-22.75-1-32.75h19.25l1,19.5h0.75c6.75-11.5,18-22.25,38-22.25
		c16.5,0,29,10,34.25,24.25h0.5c3.75-6.75,8.5-12,13.5-15.75c7.25-5.5,15.25-8.5,26.75-8.5c16,0,39.75,10.5,39.75,52.5v71.25h-21.5
		v-68.5c0-23.25-8.5-37.25-26.25-37.25c-12.5,0-22.25,9.25-26,20c-1,3-1.75,7-1.75,11v74.75h-21.5v-72.5
		c0-19.25-8.5-33.25-25.25-33.25c-13.75,0-23.75,11-27.25,22c-1.25,3.25-1.75,7-1.75,10.75v73h-21.5V1883.392z"/>
	<path fill="#010101" d="M1366.373,1915.142c0.5,29.75,19.5,42,41.5,42c15.75,0,25.25-2.75,33.5-6.25l3.75,15.75
		c-7.75,3.5-21,7.5-40.25,7.5c-37.25,0-59.5-24.5-59.5-61s21.5-65.25,56.75-65.25c39.5,0,50,34.75,50,57c0,4.5-0.5,8-0.75,10.25
		H1366.373z M1430.873,1899.392c0.25-14-5.75-35.75-30.5-35.75c-22.25,0-32,20.5-33.75,35.75H1430.873z M1436.123,1798.392
		l-30.5,35.75h-15.75l22-35.75H1436.123z"/>
	<path fill="#010101" d="M1471.123,1958.642c0-9.25,6.25-15.75,15-15.75s14.75,6.5,14.75,15.75c0,9-5.75,15.75-15,15.75
		C1477.123,1974.392,1471.123,1967.642,1471.123,1958.642z"/>
	<path fill="#010101" d="M1522.869,1958.642c0-9.25,6.25-15.75,15-15.75s14.75,6.5,14.75,15.75c0,9-5.75,15.75-15,15.75
		C1528.869,1974.392,1522.869,1967.642,1522.869,1958.642z"/>
	<path fill="#010101" d="M1574.615,1958.642c0-9.25,6.25-15.75,15-15.75s14.75,6.5,14.75,15.75c0,9-5.75,15.75-15,15.75
		C1580.615,1974.392,1574.615,1967.642,1574.615,1958.642z"/>
</g>
<g>
	<g>
		<path fill="#EE6062" d="M1026,1538.274c-101.932,0-200.851-19.978-294.008-59.381c-89.945-38.042-170.711-92.492-240.053-161.834
			c-69.341-69.342-123.79-150.106-161.833-240.052c-39.402-93.156-59.38-192.077-59.38-294.008
			c0-101.932,19.979-200.851,59.38-294.007c38.043-89.946,92.493-170.71,161.833-240.052
			c69.342-69.342,150.107-123.791,240.053-161.834c93.157-39.402,192.076-59.38,294.008-59.38
			c101.931,0,200.85,19.979,294.008,59.38c89.944,38.043,170.71,92.493,240.052,161.834s123.79,150.106,161.835,240.052
			c39.402,93.156,59.38,192.075,59.38,294.007c0,101.931-19.978,200.852-59.38,294.008
			c-38.045,89.945-92.493,170.71-161.835,240.052s-150.107,123.792-240.052,161.834
			C1226.85,1518.297,1127.931,1538.274,1026,1538.274z M1026,160.837c-343.062,0-622.163,279.102-622.163,622.163
			c0,343.063,279.102,622.164,622.163,622.164c343.063,0,622.164-279.102,622.164-622.164
			C1648.164,439.938,1369.063,160.837,1026,160.837z"/>
		<circle fill="#F8BFBF" cx="1026" cy="783" r="688.719"/>
	</g>
	<path fill="#EE6062" d="M539.73,621.161h60.915c9.25-70.39,69.264-124.763,141.985-124.763
		c72.723,0,132.735,54.373,141.986,124.763h59.11c-8.95-104.007-95.96-185.604-201.998-185.604
		C635.691,435.557,548.68,517.154,539.73,621.161L539.73,621.161z"/>
	<path fill="#EE6062" d="M1091.728,621.161h60.915c9.251-70.39,69.264-124.763,141.985-124.763
		c72.724,0,132.735,54.373,141.987,124.763h59.109c-8.95-104.007-95.96-185.604-201.998-185.604
		C1187.689,435.557,1100.677,517.154,1091.728,621.161L1091.728,621.161z"/>
	<path fill="#EE6062" d="M933.875,804.959c-105.737,0-192.522,81.371-201.472,185.078h60.764
		c9.175-70.166,69.038-124.388,141.609-124.388s132.36,54.222,141.61,124.388h58.96
		C1126.397,886.33,1039.611,804.959,933.875,804.959z"/>
</g>
</svg>
