<?xml version="1.0" encoding="utf-8"?>
<!-- Generator: Adobe Illustrator 16.0.0, SVG Export Plug-In . SVG Version: 6.00 Build 0)  -->
<!DOCTYPE svg PUBLIC "-//W3C//DTD SVG 1.1//EN" "http://www.w3.org/Graphics/SVG/1.1/DTD/svg11.dtd">
<svg version="1.1" id="Calque_1" xmlns="http://www.w3.org/2000/svg" xmlns:xlink="http://www.w3.org/1999/xlink" x="0px" y="0px"
	 width="2048px" height="2048px" viewBox="0 0 2048 2048" enable-background="new 0 0 2048 2048" xml:space="preserve">
<g>
	<g>
		<path fill="#5ABA49" d="M1026.604,1534.109c-101.804,0-200.597-19.95-293.636-59.308
			c-89.833-37.992-170.496-92.376-239.75-161.626c-69.254-69.258-123.635-149.92-161.629-239.75
			c-39.353-93.042-59.306-191.834-59.306-293.637c0-101.804,19.953-200.596,59.306-293.637
			c37.994-89.831,92.375-170.493,161.629-239.75c69.254-69.251,149.917-123.634,239.75-161.627
			c93.039-39.353,191.832-59.307,293.636-59.307c101.805,0,200.596,19.955,293.638,59.307
			c89.83,37.993,170.492,92.376,239.75,161.627c69.25,69.256,123.634,149.919,161.626,239.75
			c39.353,93.041,59.308,191.833,59.308,293.637c0,101.803-19.955,200.596-59.308,293.637
			c-37.992,89.83-92.376,170.492-161.626,239.75c-69.258,69.25-149.92,123.634-239.75,161.626
			C1227.199,1514.159,1128.408,1534.109,1026.604,1534.109z M1026.604,158.41c-342.629,0-621.378,278.751-621.378,621.378
			c0,342.628,278.749,621.378,621.378,621.378c342.628,0,621.379-278.75,621.379-621.378
			C1647.982,437.161,1369.231,158.41,1026.604,158.41z"/>
		<circle fill="#CBE3B5" cx="1026.604" cy="779.788" r="687.849"/>
	</g>
	<path fill="#5ABA49" d="M540.949,618.152h60.838c9.237-70.301,69.176-124.605,141.805-124.605
		c72.632,0,132.568,54.304,141.807,124.605h59.037c-8.939-103.874-95.84-185.367-201.745-185.367
		C636.786,432.786,549.886,514.279,540.949,618.152L540.949,618.152z"/>
	<path fill="#5ABA49" d="M1092.249,618.152h60.84c9.238-70.301,69.175-124.605,141.805-124.605
		c72.632,0,132.567,54.304,141.805,124.605h59.034c-8.937-103.874-95.837-185.367-201.739-185.367
		C1188.087,432.786,1101.186,514.279,1092.249,618.152L1092.249,618.152z"/>
	<path fill="#5ABA49" d="M882.019,1038.39c105.603,0,192.279-81.27,201.216-184.846h-60.688
		c-9.164,70.078-68.95,124.233-141.429,124.233c-72.48,0-132.192-54.156-141.431-124.233h-58.886
		C689.74,957.12,776.414,1038.39,882.019,1038.39z"/>
</g>
<g>
	<path fill="#010101" d="M695.378,1894.609h-66.811v61.967h74.461v18.615h-96.647v-171.873h92.822v18.615h-70.636v54.316h66.811
		V1894.609z"/>
	<path fill="#010101" d="M731.073,1885.175c0-12.75-0.255-23.206-1.02-33.405h19.891l1.275,20.4h0.51
		c6.12-11.73,20.4-23.206,40.801-23.206c17.085,0,43.606,10.2,43.606,52.531v73.696h-22.44v-71.146
		c0-19.891-7.395-36.466-28.561-36.466c-14.79,0-26.265,10.455-30.09,22.95c-1.02,2.806-1.53,6.631-1.53,10.456v74.206h-22.44
		V1885.175z"/>
	<path fill="#010101" d="M877.956,1851.77l24.225,69.361c4.08,11.22,7.396,21.42,9.945,31.62h0.765
		c2.805-10.2,6.375-20.4,10.455-31.62l23.971-69.361h23.46l-48.451,123.422h-21.42l-46.921-123.422H877.956z"/>
	<path fill="#010101" d="M1101.08,1912.46c0,45.646-31.62,65.536-61.456,65.536c-33.405,0-59.161-24.48-59.161-63.496
		c0-41.311,27.031-65.536,61.201-65.536C1077.11,1848.964,1101.08,1874.72,1101.08,1912.46z M1003.159,1913.735
		c0,27.03,15.555,47.431,37.486,47.431c21.42,0,37.485-20.146,37.485-47.94c0-20.911-10.455-47.432-36.976-47.432
		S1003.159,1890.274,1003.159,1913.735z"/>
	<path fill="#010101" d="M1135.761,1851.77l27.03,72.931c2.806,8.16,5.865,17.851,7.905,25.246h0.511
		c2.295-7.396,4.845-16.831,7.904-25.756l24.48-72.421h23.716l-33.661,87.977c-16.064,42.33-27.03,64.006-42.33,77.266
		c-10.966,9.69-21.931,13.516-27.541,14.536l-5.609-18.871c5.609-1.784,13.005-5.354,19.635-10.965
		c6.12-4.845,13.771-13.516,18.87-24.99c1.021-2.295,1.785-4.08,1.785-5.355c0-1.274-0.51-3.06-1.53-5.865l-45.646-113.731H1135.761
		z"/>
	<path fill="#010101" d="M1257.65,1917.561c0.51,30.346,19.891,42.841,42.331,42.841c16.065,0,25.756-2.806,34.171-6.375
		l3.825,16.065c-7.905,3.569-21.421,7.649-41.056,7.649c-37.996,0-60.691-24.99-60.691-62.221c0-37.231,21.93-66.557,57.886-66.557
		c40.291,0,51.001,35.446,51.001,58.142c0,4.59-0.51,8.16-0.765,10.455H1257.65z M1323.441,1901.495
		c0.256-14.28-5.864-36.466-31.11-36.466c-22.695,0-32.641,20.91-34.426,36.466H1323.441z M1328.797,1798.473l-31.11,36.466h-16.065
		l22.44-36.466H1328.797z"/>
	<path fill="#010101" d="M1422.631,1962.187c0-9.181,6.375-15.811,15.045-15.811c9.181,0,15.046,6.63,15.046,15.811
		c0,8.925-5.865,15.81-15.046,15.81C1428.751,1977.996,1422.631,1971.111,1422.631,1962.187z M1429.006,1925.721l-3.57-122.402
		h24.48l-3.569,122.402H1429.006z"/>
</g>
</svg>
